# File produced by Open Asset Import Library (http://www.assimp.sf.net)
# (assimp v3.1.202510665)

mtllib fence%20final.mtl

# vertex positions
v 0.854300 -0.232323 -0.000000
v -0.779948 0.451718 0.000000
v -0.790837 0.417314 0.088388
v 0.843412 -0.266726 0.088388
v -0.817124 0.334256 0.125000
v 0.817124 -0.349784 0.125000
v -0.843411 0.251198 0.088388
v 0.790837 -0.432842 0.088388
v -0.854300 0.216794 0.000000
v 0.779948 -0.467246 -0.000000
v -0.843411 0.251198 -0.088388
v 0.790837 -0.432842 -0.088388
v -0.817124 0.334256 -0.125000
v 0.817124 -0.349784 -0.125000
v -0.790837 0.417314 -0.088388
v 0.843412 -0.266726 -0.088388
v -0.739130 -0.500000 0.000000
v -0.739130 0.500000 0.000000
v -0.777334 0.500000 0.106066
v -0.777334 -0.500000 0.106066
v -0.869565 0.500000 0.150000
v -0.869565 -0.500000 0.150000
v -0.961797 0.500000 0.106066
v -0.961797 -0.500000 0.106066
v -1.000000 0.500000 0.000000
v -1.000000 -0.500000 0.000000
v -0.961797 0.500000 -0.106066
v -0.961797 -0.500000 -0.106066
v -0.869565 0.500000 -0.150000
v -0.869565 -0.500000 -0.150000
v -0.777334 0.500000 -0.106066
v -0.777334 -0.500000 -0.106066
v 1.000000 -0.500000 -0.000000
v 1.000000 0.500000 -0.000000
v 0.961796 0.500000 0.106066
v 0.961796 -0.500000 0.106066
v 0.869565 0.500000 0.150000
v 0.869565 -0.500000 0.150000
v 0.777334 0.500000 0.106066
v 0.777334 -0.500000 0.106066
v 0.739130 0.500000 -0.000000
v 0.739130 -0.500000 -0.000000
v 0.777334 0.500000 -0.106066
v 0.777334 -0.500000 -0.106066
v 0.869565 0.500000 -0.150000
v 0.869565 -0.500000 -0.150000
v 0.961796 0.500000 -0.106066
v 0.961796 -0.500000 -0.106066
v -0.779948 -0.466367 0.000000
v 0.854300 0.217674 -0.000000
v 0.843412 0.252077 0.088388
v -0.790837 -0.431963 0.088388
v 0.817124 0.335135 0.125000
v -0.817124 -0.348905 0.125000
v 0.790837 0.418193 0.088388
v -0.843411 -0.265847 0.088388
v 0.779948 0.452597 -0.000000
v -0.854300 -0.231444 0.000000
v 0.790837 0.418193 -0.088388
v -0.843412 -0.265847 -0.088388
v 0.817124 0.335135 -0.125000
v -0.817124 -0.348905 -0.125000
v 0.843412 0.252077 -0.088388
v -0.790837 -0.431963 -0.088388

# UV coordinates
vt 0.156193 0.119609
vt 0.156192 0.875143
vt 0.120051 0.875143
vt 0.120052 0.119609
vt 0.083910 0.875143
vt 0.083910 0.119609
vt 0.047768 0.875143
vt 0.047769 0.119609
vt 0.011627 0.875142
vt 0.011628 0.119609
vt 0.300757 0.119609
vt 0.300758 0.875142
vt 0.264616 0.875142
vt 0.264617 0.119609
vt 0.228475 0.875142
vt 0.228475 0.119609
vt 0.192334 0.875143
vt 0.192333 0.119609
vt 0.982072 0.507457
vt 0.982072 0.885223
vt 0.938702 0.885223
vt 0.938703 0.507457
vt 0.895333 0.885223
vt 0.895333 0.507457
vt 0.851963 0.885223
vt 0.851963 0.507457
vt 0.808594 0.885223
vt 0.808594 0.507457
vt 0.765224 0.885223
vt 0.765224 0.507457
vt 0.721855 0.885223
vt 0.721855 0.507457
vt 0.969369 0.915890
vt 0.969369 0.959260
vt 0.938702 0.989926
vt 0.895333 0.989926
vt 0.864666 0.959260
vt 0.864666 0.915890
vt 0.678486 0.885223
vt 0.678485 0.507457
vt 0.635116 0.885223
vt 0.635115 0.507457
vt 0.804688 0.011363
vt 0.804687 0.389130
vt 0.761318 0.389130
vt 0.761318 0.011363
vt 0.717948 0.389130
vt 0.717948 0.011363
vt 0.674579 0.389130
vt 0.674579 0.011363
vt 0.631209 0.389130
vt 0.631209 0.011363
vt 0.978166 0.011364
vt 0.978165 0.389130
vt 0.934796 0.389130
vt 0.934796 0.011364
vt 0.891426 0.389130
vt 0.891427 0.011364
vt 0.748615 0.419796
vt 0.748615 0.463166
vt 0.717948 0.493833
vt 0.674579 0.493833
vt 0.643912 0.463166
vt 0.643912 0.419797
vt 0.848057 0.389130
vt 0.848057 0.011363
vt 0.616400 0.118280
vt 0.616402 0.873815
vt 0.580261 0.873815
vt 0.580260 0.118280
vt 0.544119 0.873815
vt 0.544120 0.118280
vt 0.507978 0.873815
vt 0.507978 0.118280
vt 0.471836 0.873815
vt 0.471838 0.118280
vt 0.435695 0.873815
vt 0.435697 0.118280
vt 0.399554 0.873815
vt 0.399554 0.118280
vt 0.363412 0.873815
vt 0.363412 0.118280
vt 0.327271 0.873815
vt 0.327273 0.118280

# vertex normals
vn 0.357670 0.854514 0.376667
vn 0.150104 0.358616 0.921338
vn -0.150104 -0.358615 0.921338
vn -0.357670 -0.854514 0.376667
vn -0.357670 -0.854514 -0.376667
vn -0.150104 -0.358616 -0.921338
vn 0.150104 0.358616 -0.921338
vn 0.357670 0.854514 -0.376667
vn 0.940832 -0.000000 0.338874
vn 0.430048 0.000000 0.902806
vn -0.430048 0.000000 0.902806
vn -0.940832 0.000000 0.338874
vn -0.940832 0.000000 -0.338874
vn -0.430048 0.000000 -0.902806
vn 0.000000 1.000000 0.000000
vn 0.430048 0.000000 -0.902806
vn 0.940832 -0.000000 -0.338874
vn 0.940832 0.000000 0.338875
vn 0.430048 0.000000 0.902806
vn -0.430047 0.000000 0.902806
vn -0.940832 0.000000 0.338873
vn -0.940832 0.000000 -0.338873
vn -0.430048 0.000000 -0.902806
vn 0.000000 1.000000 0.000000
vn 0.430047 0.000000 -0.902806
vn 0.940832 0.000000 -0.338874
vn 0.357670 -0.854514 0.376667
vn 0.150104 -0.358616 0.921338
vn -0.150104 0.358615 0.921338
vn -0.357670 0.854514 0.376667
vn -0.357670 0.854514 -0.376667
vn -0.150104 0.358616 -0.921338
vn 0.150104 -0.358616 -0.921338
vn 0.357670 -0.854514 -0.376667

# Mesh
g Cylinder.003
usemtl DefaultMaterial
f 4/4/1 1/1/1 2/2/1
f 2/2/1 3/3/1 4/4/1
f 6/6/2 4/4/2 3/3/2
f 3/3/2 5/5/2 6/6/2
f 8/8/3 6/6/3 5/5/3
f 5/5/3 7/7/3 8/8/3
f 10/10/4 8/8/4 7/7/4
f 7/7/4 9/9/4 10/10/4
f 12/14/5 10/11/5 9/12/5
f 9/12/5 11/13/5 12/14/5
f 14/16/6 12/14/6 11/13/6
f 11/13/6 13/15/6 14/16/6
f 16/18/7 14/16/7 13/15/7
f 13/15/7 15/17/7 16/18/7
f 1/1/8 16/18/8 15/17/8
f 15/17/8 2/2/8 1/1/8
f 20/22/9 17/19/9 18/20/9
f 18/20/9 19/21/9 20/22/9
f 22/24/10 20/22/10 19/21/10
f 19/21/10 21/23/10 22/24/10
f 24/26/11 22/24/11 21/23/11
f 21/23/11 23/25/11 24/26/11
f 26/28/12 24/26/12 23/25/12
f 23/25/12 25/27/12 26/28/12
f 28/30/13 26/28/13 25/27/13
f 25/27/13 27/29/13 28/30/13
f 30/32/14 28/30/14 27/29/14
f 27/29/14 29/31/14 30/32/14
f 21/23/15 19/21/15 18/33/15
f 21/23/15 18/33/15 31/34/15
f 21/23/15 31/34/15 29/35/15
f 21/23/15 29/35/15 27/36/15
f 21/23/15 27/36/15 25/37/15
f 25/37/15 23/38/15 21/23/15
f 32/40/16 30/32/16 29/31/16
f 29/31/16 31/39/16 32/40/16
f 17/42/17 32/40/17 31/39/17
f 31/39/17 18/41/17 17/42/17
f 36/46/18 33/43/18 34/44/18
f 34/44/18 35/45/18 36/46/18
f 38/48/19 36/46/19 35/45/19
f 35/45/19 37/47/19 38/48/19
f 40/50/20 38/48/20 37/47/20
f 37/47/20 39/49/20 40/50/20
f 42/52/21 40/50/21 39/49/21
f 39/49/21 41/51/21 42/52/21
f 44/56/22 42/53/22 41/54/22
f 41/54/22 43/55/22 44/56/22
f 46/58/23 44/56/23 43/55/23
f 43/55/23 45/57/23 46/58/23
f 37/47/24 35/59/24 34/60/24
f 37/47/24 34/60/24 47/61/24
f 37/47/24 47/61/24 45/62/24
f 37/47/24 45/62/24 43/63/24
f 37/47/24 43/63/24 41/64/24
f 41/64/24 39/49/24 37/47/24
f 48/66/25 46/58/25 45/57/25
f 45/57/25 47/65/25 48/66/25
f 33/43/26 48/66/26 47/65/26
f 47/65/26 34/44/26 33/43/26
f 52/70/27 49/67/27 50/68/27
f 50/68/27 51/69/27 52/70/27
f 54/72/28 52/70/28 51/69/28
f 51/69/28 53/71/28 54/72/28
f 56/74/29 54/72/29 53/71/29
f 53/71/29 55/73/29 56/74/29
f 58/76/30 56/74/30 55/73/30
f 55/73/30 57/75/30 58/76/30
f 60/78/31 58/76/31 57/75/31
f 57/75/31 59/77/31 60/78/31
f 62/80/32 60/78/32 59/77/32
f 59/77/32 61/79/32 62/80/32
f 64/82/33 62/80/33 61/79/33
f 61/79/33 63/81/33 64/82/33
f 49/84/34 64/82/34 63/81/34
f 63/81/34 50/83/34 49/84/34
